<mxfile host="app.diagrams.net" modified="2023-11-30T15:59:56.096Z" agent="Mozilla/5.0 (X11; Linux x86_64) AppleWebKit/537.36 (KHTML, like Gecko) Chrome/119.0.0.0 Safari/537.36" etag="FU1uLWZ0aPcKXpCS_0PQ" version="22.1.5" type="device">
  <diagram name="Page-1" id="TWn3HhSQoI7ZnFTrTiXl">
    <mxGraphModel dx="2074" dy="1166" grid="1" gridSize="10" guides="1" tooltips="1" connect="1" arrows="1" fold="1" page="1" pageScale="1" pageWidth="850" pageHeight="1100" math="0" shadow="0">
      <root>
        <mxCell id="0" />
        <mxCell id="1" parent="0" />
        <mxCell id="WSNXd9myO0qs0Xoop_Bs-1" value="" style="edgeStyle=orthogonalEdgeStyle;rounded=0;orthogonalLoop=1;jettySize=auto;html=1;" parent="1" source="WSNXd9myO0qs0Xoop_Bs-2" target="WSNXd9myO0qs0Xoop_Bs-4" edge="1">
          <mxGeometry relative="1" as="geometry" />
        </mxCell>
        <mxCell id="WSNXd9myO0qs0Xoop_Bs-2" value="Начало" style="ellipse;whiteSpace=wrap;html=1;" parent="1" vertex="1">
          <mxGeometry x="350" width="120" height="80" as="geometry" />
        </mxCell>
        <mxCell id="WSNXd9myO0qs0Xoop_Bs-29" value="" style="edgeStyle=orthogonalEdgeStyle;rounded=0;orthogonalLoop=1;jettySize=auto;html=1;" parent="1" source="WSNXd9myO0qs0Xoop_Bs-4" target="WSNXd9myO0qs0Xoop_Bs-28" edge="1">
          <mxGeometry relative="1" as="geometry" />
        </mxCell>
        <mxCell id="WSNXd9myO0qs0Xoop_Bs-4" value="k,circleData*[k],m,points*[m]" style="shape=parallelogram;perimeter=parallelogramPerimeter;whiteSpace=wrap;html=1;fixedSize=1;" parent="1" vertex="1">
          <mxGeometry x="305" y="110" width="210" height="60" as="geometry" />
        </mxCell>
        <mxCell id="WSNXd9myO0qs0Xoop_Bs-27" value="35.1" style="text;html=1;strokeColor=none;fillColor=none;align=center;verticalAlign=middle;whiteSpace=wrap;rounded=0;" parent="1" vertex="1">
          <mxGeometry x="10" y="10" width="60" height="30" as="geometry" />
        </mxCell>
        <mxCell id="WSNXd9myO0qs0Xoop_Bs-32" value="" style="edgeStyle=orthogonalEdgeStyle;rounded=0;orthogonalLoop=1;jettySize=auto;html=1;" parent="1" source="WSNXd9myO0qs0Xoop_Bs-28" target="WSNXd9myO0qs0Xoop_Bs-31" edge="1">
          <mxGeometry relative="1" as="geometry" />
        </mxCell>
        <mxCell id="WSNXd9myO0qs0Xoop_Bs-28" value="counter=0&lt;br&gt;countPointsInCircle*[k]" style="whiteSpace=wrap;html=1;" parent="1" vertex="1">
          <mxGeometry x="350" y="190" width="120" height="60" as="geometry" />
        </mxCell>
        <mxCell id="WSNXd9myO0qs0Xoop_Bs-30" value="За i от 0 до m&lt;br&gt;" style="swimlane;horizontal=0;whiteSpace=wrap;html=1;" parent="1" vertex="1">
          <mxGeometry x="10" y="270" width="820" height="620" as="geometry" />
        </mxCell>
        <mxCell id="WSNXd9myO0qs0Xoop_Bs-31" value="" style="shape=waypoint;sketch=0;size=6;pointerEvents=1;points=[];fillColor=default;resizable=0;rotatable=0;perimeter=centerPerimeter;snapToPoint=1;" parent="WSNXd9myO0qs0Xoop_Bs-30" vertex="1">
          <mxGeometry x="550" y="-10" width="20" height="20" as="geometry" />
        </mxCell>
        <mxCell id="WSNXd9myO0qs0Xoop_Bs-33" value="За j от 0 до k&lt;br&gt;" style="swimlane;horizontal=0;whiteSpace=wrap;html=1;" parent="WSNXd9myO0qs0Xoop_Bs-30" vertex="1">
          <mxGeometry x="50" y="30" width="770" height="590" as="geometry" />
        </mxCell>
        <mxCell id="WSNXd9myO0qs0Xoop_Bs-34" value="" style="shape=waypoint;sketch=0;size=6;pointerEvents=1;points=[];fillColor=default;resizable=0;rotatable=0;perimeter=centerPerimeter;snapToPoint=1;" parent="WSNXd9myO0qs0Xoop_Bs-33" vertex="1">
          <mxGeometry x="550" y="-10" width="20" height="20" as="geometry" />
        </mxCell>
        <mxCell id="WSNXd9myO0qs0Xoop_Bs-38" value="" style="edgeStyle=orthogonalEdgeStyle;rounded=0;orthogonalLoop=1;jettySize=auto;html=1;" parent="WSNXd9myO0qs0Xoop_Bs-33" source="WSNXd9myO0qs0Xoop_Bs-35" target="WSNXd9myO0qs0Xoop_Bs-37" edge="1">
          <mxGeometry relative="1" as="geometry" />
        </mxCell>
        <mxCell id="WSNXd9myO0qs0Xoop_Bs-35" value="isPointInCircle(points[i][0], points[i][1], circleData[j][0], circleData[j][1], circleData[j][2]" style="rhombus;whiteSpace=wrap;html=1;" parent="WSNXd9myO0qs0Xoop_Bs-33" vertex="1">
          <mxGeometry x="70" y="30" width="330" height="260" as="geometry" />
        </mxCell>
        <mxCell id="WSNXd9myO0qs0Xoop_Bs-40" value="" style="edgeStyle=orthogonalEdgeStyle;rounded=0;orthogonalLoop=1;jettySize=auto;html=1;" parent="WSNXd9myO0qs0Xoop_Bs-33" source="WSNXd9myO0qs0Xoop_Bs-37" target="WSNXd9myO0qs0Xoop_Bs-39" edge="1">
          <mxGeometry relative="1" as="geometry" />
        </mxCell>
        <mxCell id="WSNXd9myO0qs0Xoop_Bs-55" value="" style="edgeStyle=orthogonalEdgeStyle;rounded=0;orthogonalLoop=1;jettySize=auto;html=1;" parent="WSNXd9myO0qs0Xoop_Bs-33" source="WSNXd9myO0qs0Xoop_Bs-37" target="WSNXd9myO0qs0Xoop_Bs-54" edge="1">
          <mxGeometry relative="1" as="geometry" />
        </mxCell>
        <mxCell id="WSNXd9myO0qs0Xoop_Bs-37" value="!isCircleIdInArray&lt;br&gt;(countPointsInCircle, counter, j)" style="rhombus;whiteSpace=wrap;html=1;" parent="WSNXd9myO0qs0Xoop_Bs-33" vertex="1">
          <mxGeometry x="95" y="330" width="210" height="130" as="geometry" />
        </mxCell>
        <mxCell id="WSNXd9myO0qs0Xoop_Bs-61" value="" style="edgeStyle=orthogonalEdgeStyle;rounded=0;orthogonalLoop=1;jettySize=auto;html=1;entryX=1.1;entryY=0.375;entryDx=0;entryDy=0;entryPerimeter=0;" parent="WSNXd9myO0qs0Xoop_Bs-33" source="WSNXd9myO0qs0Xoop_Bs-39" target="WSNXd9myO0qs0Xoop_Bs-60" edge="1">
          <mxGeometry relative="1" as="geometry" />
        </mxCell>
        <mxCell id="WSNXd9myO0qs0Xoop_Bs-39" value="&lt;div&gt;&lt;span style=&quot;background-color: initial;&quot;&gt;&amp;nbsp;countPointsInCircle[counter][0] = j;&lt;/span&gt;&lt;/div&gt;&lt;div&gt;&lt;span style=&quot;background-color: initial;&quot;&gt;countPointsInCircle[counter][1] = 1;&lt;/span&gt;&lt;/div&gt;&lt;div&gt;&lt;span style=&quot;background-color: initial;&quot;&gt;counter++;&lt;/span&gt;&lt;/div&gt;" style="whiteSpace=wrap;html=1;" parent="WSNXd9myO0qs0Xoop_Bs-33" vertex="1">
          <mxGeometry x="365" y="410" width="210" height="85" as="geometry" />
        </mxCell>
        <mxCell id="WSNXd9myO0qs0Xoop_Bs-36" value="" style="edgeStyle=orthogonalEdgeStyle;rounded=0;orthogonalLoop=1;jettySize=auto;html=1;entryX=0.25;entryY=0;entryDx=0;entryDy=0;" parent="WSNXd9myO0qs0Xoop_Bs-33" source="WSNXd9myO0qs0Xoop_Bs-35" target="WSNXd9myO0qs0Xoop_Bs-33" edge="1">
          <mxGeometry relative="1" as="geometry">
            <mxPoint x="130" y="20" as="targetPoint" />
            <Array as="points">
              <mxPoint x="201" />
            </Array>
          </mxGeometry>
        </mxCell>
        <mxCell id="WSNXd9myO0qs0Xoop_Bs-49" value="Да" style="text;html=1;strokeColor=none;fillColor=none;align=center;verticalAlign=middle;whiteSpace=wrap;rounded=0;" parent="WSNXd9myO0qs0Xoop_Bs-33" vertex="1">
          <mxGeometry x="220" y="290" width="60" height="30" as="geometry" />
        </mxCell>
        <mxCell id="WSNXd9myO0qs0Xoop_Bs-50" value="Да" style="text;html=1;strokeColor=none;fillColor=none;align=center;verticalAlign=middle;whiteSpace=wrap;rounded=0;" parent="WSNXd9myO0qs0Xoop_Bs-33" vertex="1">
          <mxGeometry x="305" y="360" width="60" height="30" as="geometry" />
        </mxCell>
        <mxCell id="WSNXd9myO0qs0Xoop_Bs-51" value="" style="shape=waypoint;sketch=0;size=6;pointerEvents=1;points=[];fillColor=default;resizable=0;rotatable=0;perimeter=centerPerimeter;snapToPoint=1;" parent="WSNXd9myO0qs0Xoop_Bs-33" vertex="1">
          <mxGeometry x="10" y="160" width="20" height="20" as="geometry" />
        </mxCell>
        <mxCell id="WSNXd9myO0qs0Xoop_Bs-52" value="" style="edgeStyle=orthogonalEdgeStyle;rounded=0;orthogonalLoop=1;jettySize=auto;html=1;exitX=0;exitY=0.5;exitDx=0;exitDy=0;" parent="WSNXd9myO0qs0Xoop_Bs-33" source="WSNXd9myO0qs0Xoop_Bs-35" target="WSNXd9myO0qs0Xoop_Bs-51" edge="1">
          <mxGeometry relative="1" as="geometry">
            <mxPoint x="265" y="170" as="sourcePoint" />
          </mxGeometry>
        </mxCell>
        <mxCell id="WSNXd9myO0qs0Xoop_Bs-53" value="Не" style="text;html=1;strokeColor=none;fillColor=none;align=center;verticalAlign=middle;whiteSpace=wrap;rounded=0;" parent="WSNXd9myO0qs0Xoop_Bs-33" vertex="1">
          <mxGeometry x="20" y="120" width="60" height="30" as="geometry" />
        </mxCell>
        <mxCell id="WSNXd9myO0qs0Xoop_Bs-59" value="" style="edgeStyle=orthogonalEdgeStyle;rounded=0;orthogonalLoop=1;jettySize=auto;html=1;entryX=1.1;entryY=0.225;entryDx=0;entryDy=0;entryPerimeter=0;" parent="WSNXd9myO0qs0Xoop_Bs-33" source="WSNXd9myO0qs0Xoop_Bs-54" target="WSNXd9myO0qs0Xoop_Bs-60" edge="1">
          <mxGeometry relative="1" as="geometry">
            <mxPoint x="760" y="550" as="targetPoint" />
          </mxGeometry>
        </mxCell>
        <mxCell id="WSNXd9myO0qs0Xoop_Bs-54" value="updateCircleIdPointsCounter(j, countPointsInCircle, counter);" style="whiteSpace=wrap;html=1;" parent="WSNXd9myO0qs0Xoop_Bs-33" vertex="1">
          <mxGeometry x="140" y="495" width="200" height="65" as="geometry" />
        </mxCell>
        <mxCell id="WSNXd9myO0qs0Xoop_Bs-56" value="Не" style="text;html=1;strokeColor=none;fillColor=none;align=center;verticalAlign=middle;whiteSpace=wrap;rounded=0;" parent="WSNXd9myO0qs0Xoop_Bs-33" vertex="1">
          <mxGeometry x="220" y="450" width="60" height="30" as="geometry" />
        </mxCell>
        <mxCell id="WSNXd9myO0qs0Xoop_Bs-60" value="" style="shape=waypoint;sketch=0;size=6;pointerEvents=1;points=[];fillColor=default;resizable=0;rotatable=0;perimeter=centerPerimeter;snapToPoint=1;" parent="WSNXd9myO0qs0Xoop_Bs-33" vertex="1">
          <mxGeometry x="760" y="442.5" width="20" height="20" as="geometry" />
        </mxCell>
        <mxCell id="WSNXd9myO0qs0Xoop_Bs-63" value="" style="edgeStyle=orthogonalEdgeStyle;rounded=0;orthogonalLoop=1;jettySize=auto;html=1;" parent="1" source="WSNXd9myO0qs0Xoop_Bs-57" target="WSNXd9myO0qs0Xoop_Bs-62" edge="1">
          <mxGeometry relative="1" as="geometry" />
        </mxCell>
        <mxCell id="WSNXd9myO0qs0Xoop_Bs-57" value="&lt;div&gt;&amp;nbsp; &amp;nbsp; sort(countPointsInCircle, counter + countPointsInCircle, getHeighest);&lt;/div&gt;&lt;div&gt;&lt;br&gt;&lt;/div&gt;" style="whiteSpace=wrap;html=1;fontStyle=1;startSize=23;" parent="1" vertex="1">
          <mxGeometry x="20" y="920" width="185" height="60" as="geometry" />
        </mxCell>
        <mxCell id="WSNXd9myO0qs0Xoop_Bs-58" value="" style="edgeStyle=orthogonalEdgeStyle;rounded=0;orthogonalLoop=1;jettySize=auto;html=1;" parent="1" source="WSNXd9myO0qs0Xoop_Bs-33" target="WSNXd9myO0qs0Xoop_Bs-57" edge="1">
          <mxGeometry relative="1" as="geometry" />
        </mxCell>
        <mxCell id="WSNXd9myO0qs0Xoop_Bs-65" value="" style="edgeStyle=orthogonalEdgeStyle;rounded=0;orthogonalLoop=1;jettySize=auto;html=1;" parent="1" source="WSNXd9myO0qs0Xoop_Bs-62" target="WSNXd9myO0qs0Xoop_Bs-64" edge="1">
          <mxGeometry relative="1" as="geometry" />
        </mxCell>
        <mxCell id="WSNXd9myO0qs0Xoop_Bs-62" value="Изход&lt;br&gt;countPointsInCircle, маx" style="shape=parallelogram;perimeter=parallelogramPerimeter;whiteSpace=wrap;html=1;fixedSize=1;fontStyle=1;startSize=23;" parent="1" vertex="1">
          <mxGeometry x="240" y="950" width="185" height="60" as="geometry" />
        </mxCell>
        <mxCell id="WSNXd9myO0qs0Xoop_Bs-64" value="Край" style="ellipse;whiteSpace=wrap;html=1;fontStyle=1;startSize=23;" parent="1" vertex="1">
          <mxGeometry x="470" y="950" width="140" height="80" as="geometry" />
        </mxCell>
      </root>
    </mxGraphModel>
  </diagram>
</mxfile>
